<svg width="54" height="31" viewBox="0 0 54 31" fill="none" xmlns="http://www.w3.org/2000/svg">
<path d="M3.984 12C3.86667 12 3.77067 11.9627 3.696 11.888C3.62133 11.8133 3.584 11.7173 3.584 11.6V3.312H0.735999C0.618665 3.312 0.522665 3.27467 0.447999 3.2C0.373332 3.11467 0.335999 3.01867 0.335999 2.912V1.2C0.335999 1.08267 0.373332 0.986666 0.447999 0.912C0.522665 0.837333 0.618665 0.799999 0.735999 0.799999H9.344C9.46133 0.799999 9.55733 0.837333 9.632 0.912C9.70667 0.986666 9.744 1.08267 9.744 1.2V2.912C9.744 3.01867 9.70667 3.11467 9.632 3.2C9.55733 3.27467 9.46133 3.312 9.344 3.312H6.496V11.6C6.496 11.7173 6.45867 11.8133 6.384 11.888C6.30933 11.9627 6.21333 12 6.096 12H3.984Z" fill="#212529"/>
<path d="M11.5981 12C11.4808 12 11.3848 11.9627 11.3101 11.888C11.2355 11.8133 11.1981 11.7173 11.1981 11.6V1.2C11.1981 1.08267 11.2355 0.986666 11.3101 0.912C11.3848 0.837333 11.4808 0.799999 11.5981 0.799999H15.9501C17.3261 0.799999 18.4088 1.12 19.1981 1.76C19.9981 2.38933 20.3981 3.28533 20.3981 4.448C20.3981 5.20533 20.2115 5.84533 19.8381 6.368C19.4755 6.89067 18.9955 7.28533 18.3981 7.552L20.6061 11.488C20.6381 11.552 20.6541 11.6107 20.6541 11.664C20.6541 11.7493 20.6168 11.8293 20.5421 11.904C20.4781 11.968 20.3981 12 20.3021 12H18.1901C17.9875 12 17.8381 11.952 17.7421 11.856C17.6461 11.7493 17.5768 11.6533 17.5341 11.568L15.7101 8.048H14.0621V11.6C14.0621 11.7173 14.0248 11.8133 13.9501 11.888C13.8755 11.9627 13.7795 12 13.6621 12H11.5981ZM14.0621 5.792H15.9181C16.4195 5.792 16.7928 5.66933 17.0381 5.424C17.2941 5.17867 17.4221 4.84267 17.4221 4.416C17.4221 4 17.2995 3.664 17.0541 3.408C16.8195 3.152 16.4408 3.024 15.9181 3.024H14.0621V5.792Z" fill="#212529"/>
<path d="M22.6606 12C22.5433 12 22.4473 11.9627 22.3726 11.888C22.298 11.8133 22.2606 11.7173 22.2606 11.6V1.2C22.2606 1.08267 22.298 0.986666 22.3726 0.912C22.4473 0.837333 22.5433 0.799999 22.6606 0.799999H30.1326C30.25 0.799999 30.346 0.837333 30.4206 0.912C30.4953 0.986666 30.5326 1.08267 30.5326 1.2V2.704C30.5326 2.82133 30.4953 2.91733 30.4206 2.992C30.346 3.06667 30.25 3.104 30.1326 3.104H25.0286V5.264H29.7806C29.898 5.264 29.994 5.30667 30.0686 5.392C30.1433 5.46667 30.1806 5.56267 30.1806 5.68V7.072C30.1806 7.17867 30.1433 7.27467 30.0686 7.36C29.994 7.43467 29.898 7.472 29.7806 7.472H25.0286V9.696H30.2606C30.378 9.696 30.474 9.73333 30.5486 9.808C30.6233 9.88267 30.6606 9.97867 30.6606 10.096V11.6C30.6606 11.7173 30.6233 11.8133 30.5486 11.888C30.474 11.9627 30.378 12 30.2606 12H22.6606Z" fill="#212529"/>
<path d="M31.8394 12C31.754 12 31.674 11.968 31.5994 11.904C31.5354 11.8293 31.5034 11.7493 31.5034 11.664C31.5034 11.6107 31.5087 11.5627 31.5194 11.52L35.2794 1.248C35.3114 1.13067 35.3754 1.02933 35.4714 0.943999C35.578 0.847999 35.722 0.799999 35.9034 0.799999H38.2714C38.4527 0.799999 38.5914 0.847999 38.6874 0.943999C38.794 1.02933 38.8634 1.13067 38.8954 1.248L42.6394 11.52C42.6607 11.5627 42.6714 11.6107 42.6714 11.664C42.6714 11.7493 42.634 11.8293 42.5594 11.904C42.4954 11.968 42.4154 12 42.3194 12H40.3514C40.1914 12 40.0687 11.9627 39.9834 11.888C39.9087 11.8027 39.8607 11.728 39.8394 11.664L39.2154 10.032H34.9434L34.3354 11.664C34.314 11.728 34.266 11.8027 34.1914 11.888C34.1167 11.9627 33.9887 12 33.8074 12H31.8394ZM35.5994 7.728H38.5754L37.0714 3.504L35.5994 7.728Z" fill="#212529"/>
<path d="M44.3325 12C44.2152 12 44.1192 11.9627 44.0445 11.888C43.9698 11.8133 43.9325 11.7173 43.9325 11.6V1.2C43.9325 1.08267 43.9698 0.986666 44.0445 0.912C44.1192 0.837333 44.2152 0.799999 44.3325 0.799999H48.4925C49.5378 0.799999 50.4285 0.970666 51.1645 1.312C51.9005 1.64267 52.4658 2.13333 52.8605 2.784C53.2552 3.424 53.4685 4.21867 53.5005 5.168C53.5112 5.63733 53.5165 6.048 53.5165 6.4C53.5165 6.752 53.5112 7.15733 53.5005 7.616C53.4578 8.608 53.2445 9.42933 52.8605 10.08C52.4872 10.7307 51.9378 11.216 51.2125 11.536C50.4978 11.8453 49.6178 12 48.5725 12H44.3325ZM46.7965 9.696H48.4925C48.9512 9.696 49.3298 9.62667 49.6285 9.488C49.9378 9.33867 50.1672 9.10933 50.3165 8.8C50.4765 8.49067 50.5618 8.08533 50.5725 7.584C50.5938 7.27467 50.6045 6.99733 50.6045 6.752C50.6152 6.50667 50.6152 6.26133 50.6045 6.016C50.6045 5.77067 50.5938 5.49867 50.5725 5.2C50.5512 4.47467 50.3592 3.94667 49.9965 3.616C49.6445 3.27467 49.1165 3.104 48.4125 3.104H46.7965V9.696Z" fill="#212529"/>
<path d="M1.52 31C1.40267 31 1.30667 30.9627 1.232 30.888C1.15733 30.8133 1.12 30.7173 1.12 30.6V20.2C1.12 20.0827 1.15733 19.9867 1.232 19.912C1.30667 19.8373 1.40267 19.8 1.52 19.8H5.68C6.72533 19.8 7.616 19.9707 8.352 20.312C9.088 20.6427 9.65333 21.1333 10.048 21.784C10.4427 22.424 10.656 23.2187 10.688 24.168C10.6987 24.6373 10.704 25.048 10.704 25.4C10.704 25.752 10.6987 26.1573 10.688 26.616C10.6453 27.608 10.432 28.4293 10.048 29.08C9.67467 29.7307 9.12533 30.216 8.4 30.536C7.68533 30.8453 6.80533 31 5.76 31H1.52ZM3.984 28.696H5.68C6.13867 28.696 6.51733 28.6267 6.816 28.488C7.12533 28.3387 7.35467 28.1093 7.504 27.8C7.664 27.4907 7.74933 27.0853 7.76 26.584C7.78133 26.2747 7.792 25.9973 7.792 25.752C7.80267 25.5067 7.80267 25.2613 7.792 25.016C7.792 24.7707 7.78133 24.4987 7.76 24.2C7.73867 23.4747 7.54667 22.9467 7.184 22.616C6.832 22.2747 6.304 22.104 5.6 22.104H3.984V28.696Z" fill="#212529"/>
<path d="M12.9731 31C12.8558 31 12.7598 30.9627 12.6851 30.888C12.6105 30.8133 12.5731 30.7173 12.5731 30.6V20.2C12.5731 20.0827 12.6105 19.9867 12.6851 19.912C12.7598 19.8373 12.8558 19.8 12.9731 19.8H20.4451C20.5625 19.8 20.6585 19.8373 20.7331 19.912C20.8078 19.9867 20.8451 20.0827 20.8451 20.2V21.704C20.8451 21.8213 20.8078 21.9173 20.7331 21.992C20.6585 22.0667 20.5625 22.104 20.4451 22.104H15.3411V24.264H20.0931C20.2105 24.264 20.3065 24.3067 20.3811 24.392C20.4558 24.4667 20.4931 24.5627 20.4931 24.68V26.072C20.4931 26.1787 20.4558 26.2747 20.3811 26.36C20.3065 26.4347 20.2105 26.472 20.0931 26.472H15.3411V28.696H20.5731C20.6905 28.696 20.7865 28.7333 20.8611 28.808C20.9358 28.8827 20.9731 28.9787 20.9731 29.096V30.6C20.9731 30.7173 20.9358 30.8133 20.8611 30.888C20.7865 30.9627 20.6905 31 20.5731 31H12.9731Z" fill="#212529"/>
<path d="M23.1919 31C23.0745 31 22.9785 30.9627 22.9039 30.888C22.8292 30.8133 22.7919 30.7173 22.7919 30.6V20.2C22.7919 20.0827 22.8292 19.9867 22.9039 19.912C22.9785 19.8373 23.0745 19.8 23.1919 19.8H27.6719C28.5572 19.8 29.3252 19.9387 29.9759 20.216C30.6372 20.4827 31.1492 20.888 31.5119 21.432C31.8852 21.976 32.0719 22.664 32.0719 23.496C32.0719 24.3173 31.8852 24.9947 31.5119 25.528C31.1492 26.0613 30.6372 26.456 29.9759 26.712C29.3252 26.968 28.5572 27.096 27.6719 27.096H25.7679V30.6C25.7679 30.7173 25.7252 30.8133 25.6399 30.888C25.5652 30.9627 25.4692 31 25.3519 31H23.1919ZM25.7199 24.888H27.5919C28.0505 24.888 28.4132 24.7707 28.6799 24.536C28.9572 24.3013 29.0959 23.944 29.0959 23.464C29.0959 23.0587 28.9785 22.7173 28.7439 22.44C28.5092 22.1627 28.1252 22.024 27.5919 22.024H25.7199V24.888Z" fill="#212529"/>
<path d="M36.4684 31C36.351 31 36.255 30.9627 36.1804 30.888C36.1057 30.8133 36.0684 30.7173 36.0684 30.6V22.312H33.2204C33.103 22.312 33.007 22.2747 32.9324 22.2C32.8577 22.1147 32.8204 22.0187 32.8204 21.912V20.2C32.8204 20.0827 32.8577 19.9867 32.9324 19.912C33.007 19.8373 33.103 19.8 33.2204 19.8H41.8284C41.9457 19.8 42.0417 19.8373 42.1164 19.912C42.191 19.9867 42.2284 20.0827 42.2284 20.2V21.912C42.2284 22.0187 42.191 22.1147 42.1164 22.2C42.0417 22.2747 41.9457 22.312 41.8284 22.312H38.9804V30.6C38.9804 30.7173 38.943 30.8133 38.8684 30.888C38.7937 30.9627 38.6977 31 38.5804 31H36.4684Z" fill="#212529"/>
<path d="M44.0825 31C43.9652 31 43.8692 30.9627 43.7945 30.888C43.7198 30.8133 43.6825 30.7173 43.6825 30.6V20.2C43.6825 20.0827 43.7198 19.9867 43.7945 19.912C43.8692 19.8373 43.9652 19.8 44.0825 19.8H46.1465C46.2638 19.8 46.3598 19.8373 46.4345 19.912C46.5092 19.9867 46.5465 20.0827 46.5465 20.2V24.056H50.4985V20.2C50.4985 20.0827 50.5358 19.9867 50.6105 19.912C50.6852 19.8373 50.7812 19.8 50.8985 19.8H52.9625C53.0798 19.8 53.1758 19.8373 53.2505 19.912C53.3252 19.9867 53.3625 20.0827 53.3625 20.2V30.6C53.3625 30.7173 53.3252 30.8133 53.2505 30.888C53.1758 30.9627 53.0798 31 52.9625 31H50.8985C50.7812 31 50.6852 30.9627 50.6105 30.888C50.5358 30.8133 50.4985 30.7173 50.4985 30.6V26.616H46.5465V30.6C46.5465 30.7173 46.5092 30.8133 46.4345 30.888C46.3598 30.9627 46.2638 31 46.1465 31H44.0825Z" fill="#212529"/>
</svg>
